<?xml version="1.0" encoding="utf-8"?>
<!-- Generator: Adobe Illustrator 14.0.0, SVG Export Plug-In . SVG Version: 6.00 Build 43363)  -->
<!-- Modified from https://thenounproject.com/term/coffee/16/ -->
<!DOCTYPE svg PUBLIC "-//W3C//DTD SVG 1.0//EN" "http://www.w3.org/TR/2001/REC-SVG-20010904/DTD/svg10.dtd">
<svg version="1.0" id="Layer_1" xmlns="http://www.w3.org/2000/svg" xmlns:xlink="http://www.w3.org/1999/xlink" x="0px" y="0px"
	 width="100px" height="61.67px" viewBox="0 0 100 61.67" enable-background="new 0 0 100 61.67" xml:space="preserve">
<g fill="#00838F">
<path d="M100,51.058H0C0.007,58.293,5.523,61.65,9.963,61.67h80.076C95.335,61.65,99.976,57.486,100,51.058L100,51.058z"/>
<path d="M80.998,0H21.331v39.144c0.009,5.316,4.587,9.521,9.531,9.531h38.71c5.58-0.011,9.387-4.704,9.368-9.531v-3.247
	c11.047-0.009,19.062-8.303,19.058-17.974C98.002,8.08,90.145-0.007,80.998,0z M78.94,28.427V7.364h2.058
	c7.568-0.012,9.996,7.146,9.96,10.614C90.965,23.577,86.818,28.948,78.94,28.427z"/>
</g>
</svg>
